<svg xmlns="http://www.w3.org/2000/svg" viewBox="0 0 24 24" width="24" height="24" fill="none">
  <path fill="#000" fill-rule="evenodd" d="M12 1.75 4.25 4.9v6.7c0 4.8 3.22 8.72 7.75 10.65 4.53-1.93 7.75-5.85 7.75-10.65V4.9L12 1.75Zm0 2.15 5.75 2.34v5.36c0 3.55-2.25 6.5-5.75 8.43-3.5-1.93-5.75-4.88-5.75-8.43V6.24L12 3.9Z" clip-rule="evenodd"/>
  <path fill="#000" fill-rule="evenodd" d="M8 8.25h6.35a3.65 3.65 0 1 1 0 7.3H11v2.2H8v-9.5Zm3 2.55V13h3.25a1.1 1.1 0 1 0 0-2.2H11Z" clip-rule="evenodd"/>
</svg>
